<svg width="13" height="14" viewBox="0 0 13 14" fill="none" xmlns="http://www.w3.org/2000/svg">
<g clip-path="url(#clip0_430_685)">
<path d="M12.7861 12.7869L9.03178 9.03264C9.81157 8.16684 10.2908 7.02529 10.2908 5.77111C10.2908 3.07808 8.09982 0.887077 5.40677 0.887077C2.71371 0.887077 0.522705 3.07808 0.522705 5.77114C0.522705 8.46419 2.71371 10.6552 5.40677 10.6552C6.66095 10.6552 7.80247 10.1759 8.66829 9.39615L12.4226 13.1504C12.4728 13.2006 12.5386 13.2257 12.6043 13.2257C12.6701 13.2257 12.7359 13.2006 12.7861 13.1504C12.8865 13.05 12.8865 12.8873 12.7861 12.7869ZM5.40677 10.1411C2.99738 10.1411 1.03683 8.18077 1.03683 5.77114C1.03683 3.36151 2.99738 1.40118 5.40677 1.40118C7.81615 1.40118 9.7767 3.36148 9.7767 5.77114C9.7767 8.18079 7.81615 10.1411 5.40677 10.1411Z" fill="white"/>
</g>
<defs>
<clipPath id="clip0_430_685">
<rect width="12.3387" height="12.3387" fill="white" transform="translate(0.522705 0.887077)"/>
</clipPath>
</defs>
</svg>
