<svg width="61" height="60" viewBox="0 0 61 60" fill="none" xmlns="http://www.w3.org/2000/svg">
<rect x="0.307181" y="0.307181" width="59.5995" height="59.3856" rx="14.4375" fill="#2761AD"/>
<rect x="0.307181" y="0.307181" width="59.5995" height="59.3856" rx="14.4375" stroke="#E5E5E5" stroke-width="0.614362"/>
<path d="M36.582 15H21.5488V19.7881H36.582C38.7247 19.7881 40.4617 21.5382 40.4617 23.697V36.303C40.4617 38.4618 38.7247 40.2119 36.582 40.2119H21.5488V45H36.582C41.3493 45 45.2139 41.1062 45.2139 36.303V23.697C45.2139 18.8938 41.3493 15 36.582 15Z" fill="white"/>
<path d="M35.902 24.4559L32.5344 21.0776L21.6478 32.0939L18.3676 28.7746L15 32.153L21.6478 38.8799L35.902 24.4559Z" fill="white"/>
</svg>
