<svg width="60" height="60" viewBox="0 0 60 60" fill="none" xmlns="http://www.w3.org/2000/svg">
<rect x="0.307181" y="0.307181" width="59.3856" height="59.3856" rx="14.4375" fill="white"/>
<rect x="0.307181" y="0.307181" width="59.3856" height="59.3856" rx="14.4375" stroke="#E5E5E5" stroke-width="0.614362"/>
<g clip-path="url(#clip0_2060_4413)">
<path d="M30.5801 15C28.6103 15 26.6597 15.3783 24.8398 16.1133C23.0199 16.8483 21.3664 17.9255 19.9734 19.2835C18.5806 20.6417 17.4757 22.2538 16.7219 24.0282C15.9681 25.8026 15.5801 27.7044 15.5801 29.625C15.5801 31.5456 15.9681 33.4474 16.7219 35.2218C17.4757 36.9962 18.5806 38.6083 19.9734 39.9665C21.3664 41.3245 23.0199 42.4017 24.8398 43.1367C26.6597 43.8717 28.6103 44.25 30.5801 44.25V36.9375C29.5951 36.9375 28.6199 36.7484 27.7099 36.3808C26.8 36.0134 25.9732 35.4747 25.2768 34.7957C24.5803 34.1167 24.0279 33.3106 23.651 32.4234C23.274 31.5362 23.0801 30.5853 23.0801 29.625C23.0801 28.6647 23.274 27.7138 23.651 26.8266C24.0279 25.9394 24.5803 25.1333 25.2768 24.4543C25.9732 23.7753 26.8 23.2366 27.7099 22.8692C28.6199 22.5016 29.5951 22.3125 30.5801 22.3125V15Z" fill="#2EB77D"/>
<path d="M30.2051 34.5C32.8975 34.5 35.0801 32.3174 35.0801 29.625C35.0801 26.9326 32.8975 24.75 30.2051 24.75C27.5126 24.75 25.3301 26.9326 25.3301 29.625C25.3301 32.3174 27.5126 34.5 30.2051 34.5Z" fill="#E11E5B"/>
<path d="M15.5801 29.25C15.5801 31.2198 15.9584 33.1704 16.6933 34.9903C17.4283 36.8102 18.5056 38.4637 19.8636 39.8566C21.2217 41.2495 22.8339 42.3543 24.6083 43.1082C26.3827 43.862 28.2845 44.25 30.2051 44.25C32.1256 44.25 34.0275 43.862 35.8019 43.1082C37.5762 42.3543 39.1884 41.2495 40.5465 39.8566C41.9046 38.4637 42.9818 36.8102 43.7168 34.9903C44.4518 33.1704 44.8301 31.2198 44.8301 29.25H37.5176C37.5176 30.2349 37.3285 31.2102 36.9609 32.1201C36.5934 33.0301 36.0548 33.8569 35.3758 34.5533C34.6968 35.2497 33.8907 35.8022 33.0035 36.1791C32.1163 36.556 31.1654 36.75 30.2051 36.75C29.2448 36.75 28.2939 36.556 27.4067 36.1791C26.5195 35.8022 25.7134 35.2497 25.0343 34.5533C24.3553 33.8569 23.8167 33.0301 23.4492 32.1201C23.0817 31.2102 22.8926 30.2349 22.8926 29.25H15.5801Z" fill="#2EB77D"/>
<path d="M35.0801 29.25C35.0801 28.0565 34.5664 26.912 33.6523 26.068C32.738 25.2241 31.498 24.75 30.2051 24.75C28.9122 24.75 27.6722 25.2241 26.758 26.068C25.8437 26.912 25.3301 28.0565 25.3301 29.25H30.2051H35.0801Z" fill="#E11E5B"/>
</g>
<defs>
<clipPath id="clip0_2060_4413">
<rect width="30" height="30" fill="white" transform="translate(15 15)"/>
</clipPath>
</defs>
</svg>
