<svg width="70" height="70" viewBox="0 0 70 70" fill="none" xmlns="http://www.w3.org/2000/svg">
<rect x="0.307181" y="0.307181" width="69.3856" height="69.3856" rx="14.4375" fill="url(#paint0_linear_2060_4422)"/>
<rect x="0.307181" y="0.307181" width="69.3856" height="69.3856" rx="14.4375" stroke="#E5E5E5" stroke-width="0.614362"/>
<path d="M35.0001 15L15 30.0099L15 39.9863L35 55L35.0001 15Z" fill="#F5F5F5"/>
<path d="M35.0001 15L55 30.0098V39.9863L35.0001 55L15 39.9863L15 30.0099L35.0001 15Z" fill="#0574E7"/>
<path fill-rule="evenodd" clip-rule="evenodd" d="M15 30.0098L35 15L55 30.0098V39.9863L35 55L15 39.9863L15 30.0098ZM35 48.631L50.7574 36.8022V33.1951L50.7566 33.1945L35 45.0197L19.2434 33.1945L19.2426 33.1951V36.8022L35 48.631ZM35 39.5046L47.0814 30.4376L44.1383 28.2298L35 35.0881L25.8617 28.2298L22.9186 30.4376L35 39.5046ZM35 29.573L40.4632 25.4729L35 21.3747L29.5368 25.4729L35 29.573Z" fill="#F5F5F5"/>
<defs>
<linearGradient id="paint0_linear_2060_4422" x1="35" y1="0" x2="35" y2="70" gradientUnits="userSpaceOnUse">
<stop stop-color="#18ACFE"/>
<stop offset="1" stop-color="#0266E1"/>
</linearGradient>
</defs>
</svg>
