<svg width="60" height="60" viewBox="0 0 60 60" fill="none" xmlns="http://www.w3.org/2000/svg">
<rect x="0.307181" y="0.307181" width="59.3856" height="59.3856" rx="14.4375" fill="#FF4A01"/>
<rect x="0.307181" y="0.307181" width="59.3856" height="59.3856" rx="14.4375" stroke="#E5E5E5" stroke-width="0.614362"/>
<path d="M44.9585 31.125H39.6C34.9193 31.125 31.125 34.9194 31.125 39.6V44.9585C38.5124 44.4107 44.4107 38.5124 44.9585 31.125Z" fill="#FFFFFD"/>
<path d="M28.876 44.9585V39.6C28.876 34.9194 25.0816 31.125 20.4009 31.125H15.0425C15.5902 38.5124 21.4885 44.4107 28.876 44.9585Z" fill="#FFFFFD"/>
<path d="M44.9585 28.875C44.4107 21.4875 38.5124 15.5893 31.125 15.0415V20.3999C31.125 25.0806 34.9193 28.875 39.6 28.875H44.9585Z" fill="#FFFFFD"/>
<path d="M28.876 15.0415C21.4885 15.5893 15.5902 21.4875 15.0425 28.875H20.4009C25.0816 28.875 28.876 25.0806 28.876 20.3999V15.0415Z" fill="#FFFFFD"/>
<path d="M25.1865 30C27.2659 28.961 28.9605 27.2664 29.9994 25.187C31.0384 27.2664 32.7329 28.961 34.8124 30C32.7329 31.0389 31.0384 32.7335 29.9994 34.8129C28.9605 32.7335 27.2659 31.0389 25.1865 30Z" fill="#FFFFFD"/>
</svg>
