<svg width="22" height="21" viewBox="0 0 22 21" fill="none" xmlns="http://www.w3.org/2000/svg">
<path d="M9.6543 1.6875C10.255 0.656598 11.745 0.656597 12.3457 1.6875L14.7539 5.82227C14.8326 5.95742 14.9643 6.05381 15.1172 6.08691L19.793 7.09863C20.9593 7.3512 21.42 8.76821 20.625 9.6582L17.4375 13.2266C17.3334 13.3431 17.2823 13.4978 17.2979 13.6533L17.7803 18.4141C17.9004 19.6014 16.6947 20.4774 15.6025 19.9961L11.2246 18.0664C11.0815 18.0034 10.9185 18.0034 10.7754 18.0664L6.39746 19.9961C5.30534 20.4774 4.09957 19.6014 4.21973 18.4141L4.70215 13.6533C4.71774 13.4978 4.66662 13.3431 4.5625 13.2266L1.375 9.6582C0.580045 8.76822 1.04067 7.3512 2.20703 7.09863L6.88281 6.08691C7.03569 6.05381 7.16735 5.95742 7.24609 5.82227L9.6543 1.6875Z" fill="url(#paint0_linear_587_1137)" stroke="#FF7321"/>
<defs>
<linearGradient id="paint0_linear_587_1137" x1="3.66667" y1="11.3711" x2="22" y2="11.3711" gradientUnits="userSpaceOnUse">
<stop offset="0.401534" stop-color="#FF7221"/>
<stop offset="0.41057" stop-color="#F5F5F5"/>
</linearGradient>
</defs>
</svg>
