<svg width="20" height="19" viewBox="0 0 20 19" fill="none" xmlns="http://www.w3.org/2000/svg">
<path d="M8.95703 0.864258C9.42271 0.0647439 10.5773 0.0647437 11.043 0.864258L13.4512 4.99805C13.5793 5.21809 13.7941 5.37477 14.043 5.42871L18.7197 6.44141C19.6237 6.63749 19.9806 7.73595 19.3643 8.42578L16.1758 11.9932C16.0062 12.1831 15.9245 12.4361 15.9502 12.6895L16.4316 17.4492C16.5248 18.3697 15.5908 19.0488 14.7441 18.6758L10.3662 16.7461C10.1331 16.6434 9.86687 16.6434 9.63379 16.7461L5.25586 18.6758C4.40921 19.0488 3.47516 18.3697 3.56836 17.4492L4.0498 12.6895C4.07545 12.4361 3.99382 12.1831 3.82422 11.9932L0.635742 8.42578C0.0193614 7.73595 0.376315 6.63749 1.28027 6.44141L5.95703 5.42871C6.2059 5.37477 6.42066 5.21809 6.54883 4.99805L8.95703 0.864258Z" fill="#FF7322" stroke="white" stroke-width="0.3"/>
</svg>
