<svg width="88" height="19" viewBox="0 0 88 19" fill="none" xmlns="http://www.w3.org/2000/svg">
<g clip-path="url(#clip0_587_609)">
<path d="M8.45187 0.985682C3.88805 1.30837 0.246214 4.99629 0.0157176 9.51396C-0.12258 11.865 0.661109 13.9856 1.99798 15.6452C3.70366 17.7196 6.33132 19.0565 9.23554 18.9643C13.9838 18.826 17.8561 14.9997 17.9944 10.2515C18.1788 4.99629 13.7533 0.66299 8.45187 0.985682ZM0.753305 9.97497C0.753305 5.41117 4.44124 1.72327 9.00508 1.72327C13.154 1.72327 16.6115 4.81189 17.1647 8.77637C16.6115 7.43954 15.7816 6.70195 15.044 6.33311C13.3384 5.41117 11.0334 5.64167 8.82066 6.97854C8.68242 7.07075 8.59016 7.20904 8.59016 7.34733C8.59016 7.57783 8.77458 7.76225 9.00508 7.76225C9.92704 7.80833 10.6647 8.31537 10.9873 9.09909C11.264 9.83668 11.1256 10.6664 10.6647 11.1274C10.2958 11.4962 9.78875 11.6346 9.18946 11.6346C8.49795 11.5884 7.80649 11.2657 7.34554 10.7126C5.68594 8.77637 3.88805 8.45371 2.64338 8.8225C1.81359 9.09909 1.1221 9.6523 0.753305 10.4821C0.753305 10.2977 0.753305 10.1593 0.753305 9.97497ZM11.6788 8.8225C11.4484 8.22321 11.0334 7.76225 10.5263 7.43954C12.3242 7.34733 13.6611 7.99271 14.2143 9.32959C14.8597 10.8047 14.3526 12.7409 13.154 13.5707C11.9554 14.4004 10.2498 13.9395 8.49795 12.2799C8.77458 12.326 9.05117 12.3721 9.3278 12.3721C10.2958 12.3721 10.8951 11.9572 11.2178 11.6346C11.8632 10.9431 12.0937 9.83668 11.6788 8.8225ZM9.00508 18.2728C6.88453 18.2728 4.94835 17.4891 3.51926 16.1522C2.82777 15.553 2.55117 14.5849 2.82777 13.709C3.01216 13.248 3.24267 12.9714 3.56536 12.8331C4.62564 12.4182 6.28524 13.5707 8.03699 15.9678C8.35966 16.3827 8.7285 16.7515 9.09725 17.0281C9.83483 17.5813 10.6186 17.8118 11.4484 17.8118C11.5405 17.8118 11.5866 17.8118 11.6788 17.8118C10.8491 18.0883 9.97318 18.2728 9.00508 18.2728Z" fill="#5D5D5D"/>
<path d="M24.1129 14.8329L22 5.2832H24.0311L25.3262 11.7497L27.18 5.2832H29.0476L30.9015 11.736L32.1965 5.2832H34.1595L32.0602 14.8329H29.9745L28.0934 8.17539L26.1849 14.8329H24.1129Z" fill="#5D5D5D"/>
<path d="M37.5729 14.9685C36.8641 14.9685 36.2188 14.8047 35.6372 14.4774C35.0647 14.1499 34.6103 13.7088 34.274 13.154C33.9378 12.5992 33.7697 11.9762 33.7697 11.285C33.7697 10.5938 33.9287 9.9708 34.2468 9.41599C34.5739 8.86123 35.0147 8.42011 35.569 8.09272C36.1234 7.76528 36.7413 7.60156 37.4229 7.60156C38.1045 7.60156 38.7089 7.76984 39.236 8.10634C39.763 8.44284 40.1765 8.89759 40.4765 9.47058C40.7854 10.0436 40.94 10.6938 40.94 11.4214V11.9126H35.6781C35.7599 12.1945 35.8917 12.4492 36.0734 12.6765C36.2642 12.9039 36.496 13.0813 36.7686 13.2086C37.0504 13.3359 37.3503 13.3996 37.6684 13.3996C37.9864 13.3996 38.2772 13.3495 38.5407 13.2495C38.8134 13.1495 39.0451 13.0085 39.236 12.8266L40.4628 13.9453C40.0266 14.3 39.5768 14.5592 39.1133 14.7229C38.6589 14.8866 38.1455 14.9685 37.5729 14.9685ZM35.6508 10.5756H39.0997C39.036 10.2937 38.9179 10.0481 38.7452 9.83894C38.5816 9.62063 38.3817 9.4524 38.1455 9.33416C37.9183 9.20685 37.6638 9.14314 37.3821 9.14314C37.0913 9.14314 36.8277 9.20229 36.5914 9.32054C36.3551 9.43873 36.1552 9.60701 35.9916 9.82526C35.8371 10.0345 35.7235 10.2846 35.6508 10.5756Z" fill="#5D5D5D"/>
<path d="M41.5389 14.8322V5.28253L43.4065 4.96875V8.29752C43.9699 7.85183 44.6333 7.62902 45.3967 7.62902C46.0692 7.62902 46.6781 7.79274 47.2234 8.12012C47.7686 8.44756 48.2003 8.88869 48.5184 9.44344C48.8456 9.98914 49.0091 10.603 49.0091 11.2852C49.0091 11.9673 48.8456 12.5858 48.5184 13.1406C48.1912 13.6863 47.7505 14.1228 47.1961 14.4502C46.6417 14.7685 46.0238 14.9277 45.3422 14.9277C44.9877 14.9277 44.6425 14.8777 44.3062 14.7777C43.9699 14.6776 43.661 14.532 43.3792 14.3411V14.8322H41.5389ZM45.0968 13.3452C45.4876 13.3452 45.8375 13.2543 46.1464 13.0724C46.4645 12.8905 46.7144 12.6448 46.8962 12.3356C47.0779 12.0264 47.1688 11.6763 47.1688 11.2852C47.1688 10.8941 47.0779 10.544 46.8962 10.2347C46.7144 9.91637 46.4645 9.67082 46.1464 9.49804C45.8375 9.31614 45.4876 9.22519 45.0968 9.22519C44.7515 9.22519 44.4334 9.28428 44.1426 9.40253C43.8609 9.51166 43.6155 9.67994 43.4065 9.90731V12.6767C43.6064 12.8859 43.8518 13.0496 44.1426 13.1678C44.4425 13.2861 44.7606 13.3452 45.0968 13.3452Z" fill="#5D5D5D"/>
<path d="M54.6603 14.9689C53.9515 14.9689 53.2926 14.8461 52.6837 14.6006C52.0748 14.3459 51.5387 13.9958 51.0752 13.5501C50.6208 13.0954 50.2618 12.5724 49.9983 11.9812C49.7438 11.381 49.6166 10.7352 49.6166 10.0441C49.6166 9.35282 49.7438 8.71162 49.9983 8.12045C50.2618 7.52022 50.6208 6.99726 51.0752 6.55157C51.5387 6.09683 52.0748 5.74671 52.6837 5.50113C53.2926 5.24647 53.9515 5.11914 54.6603 5.11914C55.3692 5.11914 56.028 5.24647 56.6368 5.50113C57.2546 5.74671 57.791 6.09683 58.2454 6.55157C58.7089 6.99726 59.0679 7.52022 59.3225 8.12045C59.577 8.71162 59.704 9.35282 59.704 10.0441C59.704 10.7352 59.577 11.381 59.3225 11.9812C59.0679 12.5724 58.7089 13.0954 58.2454 13.5501C57.791 13.9958 57.2546 14.3459 56.6368 14.6006C56.028 14.8461 55.3692 14.9689 54.6603 14.9689ZM54.6603 13.1545C55.0965 13.1545 55.4964 13.0772 55.8599 12.9226C56.2234 12.7589 56.5415 12.5406 56.8142 12.2678C57.087 11.9858 57.3002 11.6539 57.4551 11.2719C57.6094 10.8898 57.6865 10.4806 57.6865 10.0441C57.6865 9.59838 57.6094 9.1891 57.4551 8.81625C57.3002 8.43421 57.087 8.10683 56.8142 7.83398C56.5415 7.55202 56.2234 7.33376 55.8599 7.17916C55.4964 7.01544 55.0965 6.93355 54.6603 6.93355C54.2332 6.93355 53.8379 7.01544 53.4744 7.17916C53.1109 7.33376 52.7928 7.55202 52.5202 7.83398C52.2475 8.10683 52.034 8.43421 51.8795 8.81625C51.725 9.1891 51.6477 9.59382 51.6477 10.0304C51.6477 10.4761 51.725 10.8898 51.8795 11.2719C52.034 11.6539 52.2475 11.9858 52.5202 12.2678C52.7928 12.5406 53.1109 12.7589 53.4744 12.9226C53.8379 13.0772 54.2332 13.1545 54.6603 13.1545Z" fill="#5D5D5D"/>
<path d="M63.8002 14.9548C63.1004 14.9548 62.4687 14.7956 61.9055 14.4773C61.3418 14.1499 60.8965 13.7087 60.5697 13.154C60.2423 12.5901 60.0789 11.9625 60.0789 11.2713C60.0789 10.571 60.2423 9.94346 60.5697 9.38865C60.8965 8.83389 61.3418 8.39276 61.9055 8.06538C62.4687 7.73794 63.1004 7.57422 63.8002 7.57422C64.3634 7.57422 64.8998 7.68335 65.4088 7.90166C65.9264 8.11991 66.3723 8.43368 66.7447 8.84295L65.5996 10.0571C65.3359 9.76612 65.0589 9.55237 64.7679 9.41594C64.4861 9.27046 64.1775 9.19769 63.8409 9.19769C63.4777 9.19769 63.1502 9.28864 62.8593 9.47054C62.578 9.65243 62.3508 9.89799 62.1777 10.2072C62.0143 10.5165 61.9329 10.8711 61.9329 11.2713C61.9329 11.6533 62.0143 12.0034 62.1777 12.3218C62.3508 12.631 62.5871 12.8766 62.8866 13.0585C63.1867 13.2313 63.5184 13.3177 63.8816 13.3177C64.2 13.3177 64.4952 13.254 64.7679 13.1267C65.0498 12.9903 65.3177 12.7902 65.5722 12.5264L66.69 13.6997C66.3267 14.0908 65.8905 14.4 65.3815 14.6273C64.8724 14.8456 64.3451 14.9548 63.8002 14.9548Z" fill="#5D5D5D"/>
<path d="M70.3918 14.9548C69.6828 14.9548 69.0377 14.7911 68.4564 14.4636C67.8835 14.1362 67.4291 13.6951 67.0932 13.1403C66.7567 12.5855 66.589 11.9625 66.589 11.2713C66.589 10.5801 66.7475 9.95707 67.0659 9.40232C67.3933 8.8475 67.8337 8.40643 68.3883 8.07899C68.9423 7.75155 69.5601 7.58789 70.2417 7.58789C70.9233 7.58789 71.5277 7.75611 72.055 8.09261C72.5823 8.42917 72.9954 8.88392 73.2955 9.45685C73.6047 10.0298 73.759 10.6802 73.759 11.4078V11.8989H68.4971C68.5791 12.1808 68.7109 12.4354 68.8925 12.6628C69.0833 12.8902 69.3153 13.0676 69.5875 13.1949C69.8693 13.3222 70.1694 13.3859 70.4871 13.3859C70.8055 13.3859 71.0964 13.3359 71.3601 13.2358C71.6322 13.1358 71.8643 12.9948 72.055 12.8129L73.2821 13.9316C72.846 14.2863 72.3958 14.5455 71.9323 14.7092C71.4779 14.8729 70.9646 14.9548 70.3918 14.9548ZM68.4697 10.5619H71.919C71.8552 10.28 71.7367 10.0344 71.5642 9.82521C71.4008 9.60695 71.2009 9.43867 70.9646 9.32043C70.7374 9.19312 70.4829 9.12947 70.201 9.12947C69.91 9.12947 69.647 9.18856 69.4107 9.30681C69.1744 9.42505 68.9745 9.59327 68.8105 9.81159C68.6562 10.0208 68.5426 10.2709 68.4697 10.5619Z" fill="#5D5D5D"/>
<path d="M76.5807 14.9411C76.0723 14.9411 75.6222 14.8502 75.2316 14.6683C74.8403 14.4773 74.536 14.2181 74.3179 13.8906C74.0998 13.5633 73.9911 13.1858 73.9911 12.7583C73.9911 12.0762 74.2456 11.5487 74.7541 11.1758C75.2722 10.7939 75.9812 10.6028 76.8808 10.6028C77.4986 10.6028 78.0806 10.6984 78.6255 10.8893V10.3709C78.6255 9.96164 78.4985 9.65243 78.244 9.44324C77.9895 9.23404 77.6171 9.12948 77.1263 9.12948C76.8262 9.12948 76.5036 9.17951 76.1586 9.27952C75.8129 9.37047 75.4132 9.51601 74.9588 9.71609L74.2772 8.33823C74.8403 8.08356 75.3767 7.89254 75.8858 7.76524C76.404 7.63787 76.9215 7.57422 77.4397 7.57422C78.3941 7.57422 79.1346 7.80615 79.6618 8.27002C80.1976 8.72476 80.4661 9.37047 80.4661 10.2072V14.8184H78.6255V14.3136C78.3351 14.5318 78.0211 14.691 77.6851 14.7911C77.3486 14.8911 76.9811 14.9411 76.5807 14.9411ZM75.7631 12.7174C75.7631 12.9903 75.8809 13.2085 76.1172 13.3722C76.3535 13.5268 76.667 13.6042 77.0582 13.6042C77.3668 13.6042 77.6535 13.5678 77.9166 13.495C78.1802 13.4132 78.4165 13.295 78.6255 13.1403V12.1035C78.3983 12.0126 78.162 11.9443 77.9166 11.8989C77.6712 11.8534 77.4081 11.8307 77.1263 11.8307C76.6992 11.8307 76.3627 11.9125 76.1172 12.0762C75.8809 12.2308 75.7631 12.4446 75.7631 12.7174Z" fill="#5D5D5D"/>
<path d="M81.3342 14.8184V7.71064H83.2016V8.29725C83.738 7.81527 84.4014 7.57422 85.1917 7.57422C85.7463 7.57422 86.2323 7.69702 86.6502 7.94258C87.0779 8.17907 87.4096 8.51101 87.6459 8.93846C87.8816 9.35685 88 9.84795 88 10.4118V14.8184H86.1327V10.6847C86.1327 10.2209 86.0008 9.85707 85.7372 9.59328C85.4735 9.32043 85.1145 9.18401 84.6601 9.18401C84.3424 9.18401 84.0606 9.24772 83.8151 9.37503C83.5697 9.49327 83.365 9.66605 83.2016 9.89343V14.8184H81.3342Z" fill="#5D5D5D"/>
</g>
<defs>
<clipPath id="clip0_587_609">
<rect width="88" height="18" fill="white" transform="translate(0 0.96875)"/>
</clipPath>
</defs>
</svg>
