<svg width="24" height="24" viewBox="0 0 24 24" fill="none" xmlns="http://www.w3.org/2000/svg">
<path d="M8.38394 2.47919C8.90904 2.32087 9.47252 2.34717 9.98059 2.55371C10.4887 2.76026 10.9107 3.13459 11.1763 3.61439L11.2651 3.79319L12.0595 5.55839C12.3002 6.09426 12.3782 6.68899 12.2839 7.26879C12.1896 7.8486 11.9272 8.38796 11.5291 8.81998L11.3695 8.97838L10.1179 10.146C9.89234 10.3596 10.0615 11.1864 10.8775 12.6C11.6119 13.872 12.2095 14.466 12.5035 14.4984H12.5551L12.6187 14.4864L15.0787 13.734C15.4094 13.6326 15.7622 13.6286 16.095 13.7224C16.4278 13.8163 16.7266 14.004 16.9555 14.2632L17.0647 14.4012L18.6931 16.6572C19.0123 17.0994 19.1713 17.6371 19.144 18.1817C19.1168 18.7264 18.9048 19.2455 18.5431 19.6536L18.3967 19.8048L17.7463 20.4216C17.1623 20.9747 16.4317 21.3484 15.6414 21.4984C14.8511 21.6484 14.0344 21.5683 13.2883 21.2676C10.9663 20.3316 8.85674 18.1932 6.94034 14.874C5.02034 11.5464 4.22234 8.64599 4.57874 6.16199C4.68659 5.41111 4.99579 4.70345 5.4735 4.11418C5.95121 3.52491 6.5796 3.07602 7.29194 2.81519L7.52354 2.73839L8.38394 2.47919Z" fill="url(#paint0_linear_669_3796)"/>
<defs>
<linearGradient id="paint0_linear_669_3796" x1="11.8216" y1="21.5721" x2="11.8216" y2="2.37701" gradientUnits="userSpaceOnUse">
<stop offset="0.5" stop-color="#FF7221"/>
</linearGradient>
</defs>
</svg>
