<svg width="19" height="20" viewBox="0 0 19 20" fill="none" xmlns="http://www.w3.org/2000/svg">
<path d="M1.78723 4.70666C1.60451 4.81066 1.45268 4.96132 1.34725 5.14322C1.24182 5.32513 1.18658 5.53176 1.18717 5.74201V16.7546C1.18651 16.9598 1.23902 17.1616 1.33958 17.3405C1.44015 17.5193 1.58534 17.669 1.761 17.7751C1.93666 17.8811 2.1368 17.9398 2.3419 17.9455C2.547 17.9511 2.75007 17.9036 2.93131 17.8074C2.94727 17.7988 2.96286 17.7899 2.97807 17.7799L6.10045 15.737C6.14192 15.71 6.17596 15.673 6.19949 15.6295C6.22302 15.5859 6.23528 15.5372 6.23516 15.4877V2.22441C6.23531 2.17033 6.22069 2.11724 6.19287 2.07086C6.16505 2.02449 6.12509 1.98659 6.07731 1.96127C6.02952 1.93594 5.97573 1.92415 5.92173 1.92717C5.86774 1.93018 5.81559 1.94789 5.77092 1.97838L1.78723 4.70666Z" fill="#B3D2FE"/>
<path d="M7.88024 1.9583C7.83548 1.92921 7.7837 1.91272 7.73036 1.91058C7.67702 1.90844 7.62408 1.92072 7.57713 1.94613C7.53018 1.97154 7.49095 2.00915 7.46357 2.05498C7.4362 2.10081 7.42169 2.15318 7.42157 2.20657V15.4754C7.42145 15.5249 7.43372 15.5736 7.45724 15.6172C7.48077 15.6607 7.51481 15.6977 7.55628 15.7248L11.1188 18.0411C11.1636 18.0703 11.2154 18.0869 11.2689 18.0891C11.3223 18.0913 11.3753 18.079 11.4223 18.0535C11.4694 18.028 11.5086 17.9903 11.536 17.9444C11.5634 17.8985 11.5778 17.846 11.5778 17.7925V4.53221C11.578 4.48261 11.5657 4.43377 11.5421 4.39014C11.5185 4.34652 11.4843 4.3095 11.4427 4.28246L7.88024 1.9583Z" fill="#B3D2FE"/>
<path d="M17.2385 2.22384C17.0635 2.11673 16.8635 2.05736 16.6584 2.05163C16.4533 2.0459 16.2502 2.09401 16.0695 2.19118C16.0535 2.19939 16.038 2.20856 16.0231 2.21864L12.9004 4.25966C12.8589 4.2867 12.8249 4.32368 12.8014 4.36723C12.7778 4.41078 12.7656 4.45953 12.7657 4.50903V17.7742C12.7655 17.8283 12.7801 17.8815 12.8079 17.9279C12.8358 17.9743 12.8758 18.0123 12.9236 18.0376C12.9715 18.0629 13.0253 18.0747 13.0794 18.0716C13.1334 18.0686 13.1856 18.0508 13.2303 18.0202L17.2036 15.2941C17.3885 15.191 17.5425 15.0402 17.6496 14.8575C17.7567 14.6748 17.8129 14.4668 17.8126 14.2551V3.27069C17.815 3.06155 17.7635 2.85532 17.6629 2.67194C17.5623 2.48855 17.4161 2.33421 17.2385 2.22384V2.22384Z" fill="#B3D2FE"/>
</svg>
