<svg width="27" height="27" viewBox="0 0 27 27" fill="none" xmlns="http://www.w3.org/2000/svg">
<path d="M18.4222 3.65729C19.7265 3.66119 20.9762 4.18103 21.8985 5.10328C22.8207 6.02554 23.3405 7.27526 23.3444 8.57952V18.4229C23.3405 19.7272 22.8207 20.9769 21.8985 21.8992C20.9762 22.8214 19.7265 23.3413 18.4222 23.3451H8.57882C7.27456 23.3413 6.02484 22.8214 5.10258 21.8992C4.18033 20.9769 3.66049 19.7272 3.65659 18.4229V8.57952C3.66049 7.27526 4.18033 6.02554 5.10258 5.10328C6.02484 4.18103 7.27456 3.66119 8.57882 3.65729H18.4222ZM18.4222 1.68872H8.57882C4.7888 1.68872 1.68802 4.7895 1.68802 8.57952V18.4229C1.68802 22.2129 4.7888 25.3137 8.57882 25.3137H18.4222C22.2122 25.3137 25.313 22.2129 25.313 18.4229V8.57952C25.313 4.7895 22.2122 1.68872 18.4222 1.68872Z" fill="black"/>
<path d="M19.9026 8.58805C19.6097 8.58805 19.3234 8.5012 19.0799 8.33849C18.8364 8.17578 18.6466 7.94451 18.5345 7.67393C18.4224 7.40335 18.3931 7.10561 18.4502 6.81837C18.5074 6.53112 18.6484 6.26727 18.8555 6.06018C19.0626 5.85309 19.3264 5.71206 19.6137 5.65492C19.9009 5.59778 20.1987 5.62711 20.4693 5.73918C20.7398 5.85126 20.9711 6.04106 21.1338 6.28457C21.2965 6.52809 21.3834 6.81438 21.3834 7.10726C21.3838 7.30183 21.3458 7.49458 21.2715 7.67443C21.1972 7.85427 21.0882 8.01768 20.9506 8.15527C20.813 8.29286 20.6496 8.40191 20.4697 8.47618C20.2899 8.55045 20.0972 8.58847 19.9026 8.58805Z" fill="black"/>
<path d="M13.5003 9.56184C14.2791 9.56184 15.0404 9.79278 15.6879 10.2255C16.3355 10.6581 16.8402 11.2731 17.1382 11.9926C17.4362 12.7121 17.5142 13.5039 17.3623 14.2677C17.2104 15.0315 16.8353 15.7332 16.2846 16.2839C15.7339 16.8346 15.0323 17.2096 14.2685 17.3615C13.5046 17.5135 12.7129 17.4355 11.9934 17.1374C11.2739 16.8394 10.6589 16.3347 10.2262 15.6872C9.79354 15.0396 9.5626 14.2783 9.5626 13.4995C9.56372 12.4555 9.97894 11.4546 10.7172 10.7164C11.4554 9.97817 12.4563 9.56295 13.5003 9.56184ZM13.5003 7.59326C12.3321 7.59326 11.1902 7.93966 10.2189 8.58864C9.24766 9.23763 8.49064 10.1601 8.04361 11.2393C7.59658 12.3185 7.47962 13.5061 7.70751 14.6518C7.93541 15.7975 8.49792 16.8499 9.32393 17.6759C10.1499 18.5019 11.2023 19.0644 12.348 19.2923C13.4937 19.5202 14.6813 19.4032 15.7605 18.9562C16.8397 18.5091 17.7622 17.7521 18.4111 16.7808C19.0601 15.8096 19.4065 14.6677 19.4065 13.4995C19.4065 11.9331 18.7843 10.4308 17.6766 9.32316C16.569 8.21553 15.0667 7.59326 13.5003 7.59326Z" fill="black"/>
</svg>
