<svg width="27" height="27" viewBox="0 0 27 27" fill="none" xmlns="http://www.w3.org/2000/svg">
<path d="M23.4223 1.68848H3.70541C2.62805 1.68848 1.68674 2.46367 1.68674 3.52838V23.289C1.68674 24.3595 2.62805 25.3135 3.70541 25.3135H23.4165C24.4996 25.3135 25.3117 24.3532 25.3117 23.289V3.52838C25.3181 2.46367 24.4996 1.68848 23.4223 1.68848ZM9.00996 21.3811H5.62547V10.8579H9.00996V21.3811ZM7.43478 9.25797H7.41052C6.32736 9.25797 5.62599 8.45166 5.62599 7.44232C5.62599 6.41453 6.34582 5.62721 7.45324 5.62721C8.56066 5.62721 9.2383 6.40873 9.26256 7.44232C9.26203 8.45166 8.56066 9.25797 7.43478 9.25797ZM21.3793 21.3811H17.9948V15.6272C17.9948 14.2488 17.5023 13.3069 16.2778 13.3069C15.3423 13.3069 14.7886 13.9397 14.5423 14.5562C14.45 14.7777 14.4253 15.0793 14.4253 15.3873V21.3811H11.0408V10.8579H14.4253V12.3224C14.9178 11.621 15.6872 10.6117 17.4775 10.6117C19.6992 10.6117 21.3799 12.0761 21.3799 15.2333L21.3793 21.3811Z" fill="black"/>
</svg>
