<?xml version="1.0" encoding="utf-8"?>
<!-- Generator: Adobe Illustrator 28.1.0, SVG Export Plug-In . SVG Version: 6.00 Build 0)  -->
<svg version="1.1" id="Layer_1" xmlns="http://www.w3.org/2000/svg" xmlns:xlink="http://www.w3.org/1999/xlink" x="0px" y="0px"
	 viewBox="0 0 841.89 315.52" style="enable-background:new 0 0 841.89 315.52;" xml:space="preserve">
<style type="text/css">
	.st0{fill:#0B133C;}
	.st1{fill:#E82C2A;}
	.st2{fill:#9C92BC;}
</style>
<g>
	<g>
		<g>
			<path class="st0" d="M190.85,161.92c18.55,8.34,28.12,24.06,28.12,44.9v2.54c0,37.95-26.85,53.04-64.6,53.04h-68.9
				c-5.09,0-9.22-4.13-9.22-9.22V77.71c0-5.09,4.13-9.22,9.22-9.22h64.41c37.5,0,64.49,13.1,64.49,51.73v2.39
				C214.39,139.32,205.62,153.17,190.85,161.92L190.85,161.92z M171.2,126.87c0-13.25-6.95-20.9-24.07-20.9h-22.11
				c-3.07,0-5.57,2.49-5.57,5.57v31.85c0,3.07,2.49,5.57,5.57,5.57h21.6c17.38,0,24.58-8.71,24.58-21.2L171.2,126.87z
				 M174.65,202.59c0-12.99-7.43-22.29-24.13-22.29h-25.51c-3.07,0-5.57,2.49-5.57,5.57v33.49c0,3.07,2.49,5.57,5.57,5.57h26.36
				c15.79,0,23.27-8.06,23.27-21.3V202.59z"/>
			<path class="st0" d="M271.17,66.65c5.12,0,9.27,4.15,9.27,9.27v20.07c0,5.12-4.15,9.27-9.27,9.27h-23.32
				c-5.12,0-9.27-4.15-9.27-9.27V75.92c0-5.12,4.15-9.27,9.27-9.27H271.17z M270.87,123.89c5.09,0,9.22,4.13,9.22,9.22v120.07
				c0,5.09-4.13,9.22-9.22,9.22h-22.71c-5.09,0-9.22-4.13-9.22-9.22V133.11c0-5.09,4.13-9.22,9.22-9.22H270.87z"/>
			<path class="st0" d="M419.72,58.24c5.09,0,9.22,4.13,9.22,9.22v185.72c0,5.09-4.13,9.22-9.22,9.22h-24.2
				c-1.74,0-2.97-1.01-3.42-2.74l-0.01-0.05c-0.7-4.15-5.53-5.97-8.91-3.46c-7.98,5.91-18.17,9.86-29.81,9.86h-2.69
				c-33.79,0-50.29-26.59-50.29-59.66V182.9c0-40.32,23.52-62.61,54.6-62.61h2.69c7.8,0,15.32,1.64,22.02,5.2
				c3.67,1.95,8.09-0.79,8.09-4.95V67.46c0-5.09,4.13-9.22,9.22-9.22H419.72z M363.64,153.23c-13.87,0-21.2,9.42-21.2,27.8v24.22
				c0,18.39,7.33,27.8,21.2,27.8h1.23c6.23,0,13.35-2.25,20.39-6.94c1.57-1.04,2.53-2.79,2.53-4.68v-56.16
				c0-1.87-0.95-3.61-2.5-4.66c-7.34-4.98-14.74-7.4-20.42-7.4H363.64z"/>
			<path class="st0" d="M724.58,224.92c5.09,0,9.22,4.13,9.22,9.22v19.03c0,5.09-4.13,9.22-9.22,9.22H634.1
				c-5.09,0-9.22-4.13-9.22-9.22v-19.04c0-5.09,4.13-9.22,9.22-9.22h19.46c3.07,0,5.57-2.49,5.57-5.57v-96.6
				c0-3.79-3.71-6.48-7.32-5.28l-23.28,7.7c-1.96,0.5-3.65-0.73-3.65-2.69V89.31c0-2.47,1.46-4.43,3.65-5.16l42.79-14.43
				c2.47-0.78,4.88-1.23,7.53-1.23h14.25c5.09,0,9.22,4.13,9.22,9.22v141.65c0,3.07,2.49,5.57,5.57,5.57L724.58,224.92z"/>
		</g>
		<path class="st1" d="M509.31,138.43l-24.3,21.75c-2.1,1.88-5.27,1.89-7.38,0.04l-22.34-19.61c-3.11-2.72-5.62-9.07-5.62-14.16
			V68.55c0-5.1,2.52-7.01,5.62-4.29l55.48,48.78C520.24,121.97,516.91,131.31,509.31,138.43z"/>
		<path class="st0" d="M481.34,163.47l27.98-25.04c4.39-4.11,7.35-8.96,7.24-14.05c0.01,0.01,0.01,66.4,0.01,66.4
			c0,12.87-4.24,20.05-9.32,25.41c-0.13,0.13-0.26,0.26-0.4,0.38l-51.57,45.56c-3.1,2.74-5.61,0.83-5.61-4.27V200.3
			c0-5.09,2.52-11.43,5.63-14.14l26.01-22.72L481.34,163.47z"/>
		<path class="st2" d="M542.9,186.51l24.3-21.75c2.1-1.88,5.27-1.89,7.38-0.04l22.34,19.61c3.11,2.72,5.62,9.07,5.62,14.16v57.88
			c0,5.1-2.52,7.01-5.62,4.29l-55.48-48.78C531.97,202.97,535.3,193.63,542.9,186.51z"/>
		<path class="st0" d="M570.88,161.47l-27.98,25.04c-4.39,4.11-7.35,8.96-7.24,14.05c-0.01-0.01-0.01-66.4-0.01-66.4
			c0-12.87,4.24-20.05,9.32-25.41c0.13-0.13,0.26-0.26,0.4-0.38l51.57-45.56c3.1-2.74,5.61-0.83,5.61,4.27v57.56
			c0,5.09-2.52,11.43-5.63,14.14l-26.01,22.72L570.88,161.47z"/>
	</g>
	<path class="st1" d="M788.29,224.94c5.12,0,9.27,4.15,9.27,9.27v20.07c0,5.12-4.15,9.27-9.27,9.27h-23.32
		c-5.12,0-9.27-4.15-9.27-9.27v-20.07c0-5.12,4.15-9.27,9.27-9.27H788.29z"/>
</g>
</svg>
