<svg width="36" height="36" viewBox="0 0 36 36" fill="none" xmlns="http://www.w3.org/2000/svg">
<g filter="url(#filter0_i_659_3635)">
<path d="M18.8448 34.6539V1.34635C18.8448 0.878992 18.4659 0.500122 17.9986 0.500122C17.5312 0.500122 17.1523 0.878991 17.1523 1.34635V34.6539C17.1523 35.1213 17.5312 35.5001 17.9986 35.5001C18.4659 35.5001 18.8448 35.1213 18.8448 34.6539Z" fill="#FF5E01"/>
<path d="M34.6538 17.1538H1.34623C0.878869 17.1538 0.5 17.5327 0.5 18C0.5 18.4674 0.878871 18.8463 1.34623 18.8463H34.6538C35.1212 18.8463 35.5001 18.4674 35.5001 18C35.5001 17.5327 35.1212 17.1538 34.6538 17.1538Z" fill="#FF5E01"/>
<path d="M30.3742 29.1762L6.82245 5.62447C6.49198 5.294 5.95618 5.294 5.62571 5.62447C5.29524 5.95494 5.29524 6.49074 5.62571 6.82121L29.1775 30.373C29.508 30.7034 30.0438 30.7034 30.3742 30.373C30.7047 30.0425 30.7047 29.5067 30.3742 29.1762Z" fill="#FF5E01"/>
<path d="M29.1775 5.62409L5.62571 29.1759C5.29524 29.5063 5.29524 30.0421 5.62571 30.3726C5.95618 30.7031 6.49198 30.7031 6.82245 30.3726L30.3742 6.82083C30.7047 6.49036 30.7047 5.95456 30.3742 5.62409C30.0438 5.29362 29.508 5.29362 29.1775 5.62409Z" fill="#FF5E01"/>
<path d="M33.745 23.5054L2.89882 10.9385C2.466 10.7622 1.97218 10.9701 1.79584 11.4029C1.61951 11.8357 1.82743 12.3296 2.26026 12.5059L33.1064 25.0728C33.5392 25.2492 34.033 25.0412 34.2094 24.6084C34.3857 24.1756 34.1778 23.6818 33.745 23.5054Z" fill="#FF5E01"/>
<path d="M23.5034 2.26516L10.9365 33.1113C10.7601 33.5441 10.9681 34.0379 11.4009 34.2143C11.8337 34.3906 12.3275 34.1827 12.5039 33.7499L25.0708 2.90373C25.2471 2.47091 25.0392 1.97709 24.6064 1.80075C24.1736 1.62442 23.6798 1.83234 23.5034 2.26516Z" fill="#FF5E01"/>
<path d="M33.1454 10.9943L2.24598 23.4313C1.81241 23.6058 1.60241 24.0988 1.77692 24.5323C1.95143 24.9659 2.44438 25.1759 2.87795 25.0014L33.7774 12.5644C34.211 12.3898 34.421 11.8969 34.2465 11.4633C34.072 11.0298 33.579 10.8197 33.1454 10.9943Z" fill="#FF5E01"/>
<path d="M24.9877 33.1465L12.554 2.24712C12.3795 1.81356 11.8866 1.60351 11.453 1.77797C11.0194 1.95244 10.8094 2.44535 10.9839 2.87892L23.4176 33.7783C23.592 34.2119 24.085 34.4219 24.5185 34.2475C24.9521 34.073 25.1621 33.5801 24.9877 33.1465Z" fill="#FF5E01"/>
</g>
<defs>
<filter id="filter0_i_659_3635" x="0.5" y="0.500122" width="35" height="35.4" filterUnits="userSpaceOnUse" color-interpolation-filters="sRGB">
<feFlood flood-opacity="0" result="BackgroundImageFix"/>
<feBlend mode="normal" in="SourceGraphic" in2="BackgroundImageFix" result="shape"/>
<feColorMatrix in="SourceAlpha" type="matrix" values="0 0 0 0 0 0 0 0 0 0 0 0 0 0 0 0 0 0 127 0" result="hardAlpha"/>
<feOffset dy="0.4"/>
<feGaussianBlur stdDeviation="0.25"/>
<feComposite in2="hardAlpha" operator="arithmetic" k2="-1" k3="1"/>
<feColorMatrix type="matrix" values="0 0 0 0 0.998272 0 0 0 0 0.998272 0 0 0 0 0.998272 0 0 0 0.2 0"/>
<feBlend mode="normal" in2="shape" result="effect1_innerShadow_659_3635"/>
</filter>
</defs>
</svg>
