<svg width="107" height="32" viewBox="0 0 107 32" fill="none" xmlns="http://www.w3.org/2000/svg">
<g filter="url(#filter0_n_164_385)">
<g filter="url(#filter1_i_164_385)">
<path d="M13.6286 27.3714V2.62866C13.6286 2.28148 13.3471 2.00003 13 2.00003C12.6528 2.00003 12.3713 2.28148 12.3713 2.62866V27.3714C12.3713 27.7186 12.6528 28 13 28C13.3471 28 13.6286 27.7186 13.6286 27.3714Z" fill="#FF5E01"/>
<path d="M25.3714 14.3714H0.628627C0.281446 14.3714 0 14.6528 0 15C0 15.3472 0.281447 15.6287 0.628628 15.6287H25.3714C25.7186 15.6287 26 15.3472 26 15C26 14.6528 25.7186 14.3714 25.3714 14.3714Z" fill="#FF5E01"/>
<path d="M22.1904 23.3023L4.69483 5.80675C4.44934 5.56126 4.05132 5.56126 3.80583 5.80675C3.56034 6.05224 3.56034 6.45026 3.80583 6.69575L21.3014 24.1914C21.5469 24.4368 21.9449 24.4368 22.1904 24.1913C22.4359 23.9459 22.4359 23.5478 22.1904 23.3023Z" fill="#FF5E01"/>
<path d="M21.3014 5.80648L3.80583 23.3021C3.56034 23.5476 3.56034 23.9456 3.80583 24.1911C4.05132 24.4366 4.44934 24.4366 4.69484 24.1911L22.1904 6.69548C22.4359 6.44999 22.4359 6.05197 22.1904 5.80648C21.945 5.56098 21.5469 5.56098 21.3014 5.80648Z" fill="#FF5E01"/>
<path d="M24.6981 19.0897L1.78383 9.75427C1.4623 9.62327 1.09547 9.77773 0.964476 10.0993C0.833484 10.4208 0.987942 10.7876 1.30947 10.9186L24.2237 20.254C24.5453 20.385 24.9121 20.2306 25.0431 19.9091C25.1741 19.5875 25.0196 19.2207 24.6981 19.0897Z" fill="#FF5E01"/>
<path d="M17.0902 3.31121L7.75476 26.2255C7.62377 26.547 7.77823 26.9138 8.09975 27.0448C8.42127 27.1758 8.78811 27.0214 8.9191 26.6998L18.2545 3.78557C18.3855 3.46404 18.2311 3.09721 17.9096 2.96622C17.588 2.83522 17.2212 2.98968 17.0902 3.31121Z" fill="#FF5E01"/>
<path d="M24.2514 9.7957L1.29753 19.0346C0.975453 19.1643 0.819447 19.5305 0.949085 19.8526C1.07872 20.1746 1.44491 20.3306 1.76699 20.201L24.7209 10.9621C25.0429 10.8324 25.1989 10.4662 25.0693 10.1442C24.9397 9.82207 24.5735 9.66607 24.2514 9.7957Z" fill="#FF5E01"/>
<path d="M18.1932 26.2517L8.95669 3.29783C8.82708 2.97575 8.46092 2.81972 8.13884 2.94932C7.81676 3.07893 7.66073 3.44509 7.79033 3.76717L17.0268 26.721C17.1564 27.0431 17.5226 27.1991 17.8446 27.0695C18.1667 26.9399 18.3228 26.5738 18.1932 26.2517Z" fill="#FF5E01"/>
</g>
</g>
<path d="M38.4162 25.4025C36.4843 25.4025 34.8296 24.9821 33.4523 24.1414C32.0749 23.2917 31.015 22.1111 30.2726 20.5995C29.5392 19.088 29.1725 17.3349 29.1725 15.3404C29.1725 13.3459 29.5392 11.5928 30.2726 10.0813C31.015 8.56974 32.0749 7.39359 33.4523 6.55285C34.8296 5.70316 36.4843 5.27832 38.4162 5.27832C40.3481 5.27832 42.0028 5.70316 43.3802 6.55285C44.7665 7.39359 45.8264 8.56974 46.5598 10.0813C47.3022 11.5928 47.6733 13.3459 47.6733 15.3404C47.6733 17.3349 47.3022 19.088 46.5598 20.5995C45.8264 22.1111 44.7665 23.2917 43.3802 24.1414C42.0028 24.9821 40.3481 25.4025 38.4162 25.4025ZM38.4162 22.357C39.7131 22.366 40.7909 22.0798 41.6495 21.4984C42.5171 20.917 43.1655 20.0986 43.5948 19.0432C44.0331 17.9878 44.2522 16.7536 44.2522 15.3404C44.2522 13.9272 44.0331 12.7019 43.5948 11.6644C43.1655 10.6179 42.5171 9.80402 41.6495 9.22265C40.7909 8.64129 39.7131 8.34166 38.4162 8.32377C37.1193 8.31483 36.0416 8.60104 35.1829 9.18241C34.3243 9.76377 33.6759 10.5822 33.2376 11.6376C32.8083 12.693 32.5936 13.9272 32.5936 15.3404C32.5936 16.7536 32.8083 17.9834 33.2376 19.0298C33.6669 20.0673 34.3109 20.8768 35.1695 21.4581C36.0371 22.0395 37.1193 22.3391 38.4162 22.357ZM57.8434 25.4025C56.4302 25.4025 55.2451 25.0671 54.2881 24.3963C53.3311 23.7255 52.6111 22.8132 52.1281 21.6594C51.6451 20.4967 51.4036 19.1953 51.4036 17.7553C51.4036 16.2974 51.6451 14.9916 52.1281 13.8378C52.6111 12.684 53.3177 11.7762 54.2479 11.1143C55.187 10.4435 56.3452 10.1081 57.7226 10.1081C59.0911 10.1081 60.2762 10.4435 61.2779 11.1143C62.2886 11.7762 63.0712 12.684 63.6257 13.8378C64.1803 14.9826 64.4575 16.2885 64.4575 17.7553C64.4575 19.2042 64.1847 20.5056 63.6391 21.6594C63.0935 22.8132 62.3244 23.7255 61.3316 24.3963C60.3388 25.0671 59.176 25.4025 57.8434 25.4025ZM50.8536 31.4397V10.5106H53.7112V20.68H54.1137V31.4397H50.8536ZM57.347 22.5046C58.1877 22.5046 58.8809 22.2944 59.4265 21.874C59.9721 21.4537 60.3745 20.8857 60.6339 20.1702C60.9022 19.4457 61.0364 18.6408 61.0364 17.7553C61.0364 16.8788 60.9022 16.0828 60.6339 15.3672C60.3656 14.6428 59.9497 14.0703 59.3862 13.65C58.8228 13.2207 58.1072 13.006 57.2397 13.006C56.4168 13.006 55.746 13.2072 55.2272 13.6097C54.7085 14.0033 54.3239 14.5578 54.0734 15.2733C53.832 15.9799 53.7112 16.8072 53.7112 17.7553C53.7112 18.6944 53.832 19.5218 54.0734 20.2373C54.3239 20.9528 54.713 21.5118 55.2407 21.9143C55.7773 22.3078 56.4794 22.5046 57.347 22.5046ZM68.2197 8.31036V5.3454H71.453V8.31036H68.2197ZM68.2197 25V10.5106H71.453V25H68.2197ZM74.3984 25L79.6978 17.6748L74.5058 10.5106H78.3159L81.5761 15.1392L84.7825 10.5106H88.5927L83.4006 17.6748L88.7268 25H84.9167L81.5761 20.2104L78.2086 25H74.3984ZM97.2777 25.4025C95.8288 25.4025 94.5632 25.076 93.481 24.4231C92.3987 23.7702 91.558 22.8713 90.9587 21.7265C90.3684 20.5727 90.0733 19.249 90.0733 17.7553C90.0733 16.2348 90.3774 14.9021 90.9856 13.7573C91.5938 12.6125 92.439 11.7181 93.5212 11.0741C94.6034 10.4301 95.8556 10.1081 97.2777 10.1081C98.7356 10.1081 100.006 10.4346 101.088 11.0875C102.17 11.7404 103.011 12.6438 103.61 13.7975C104.209 14.9424 104.509 16.2616 104.509 17.7553C104.509 19.2579 104.205 20.5861 103.597 21.7399C102.997 22.8847 102.157 23.7836 101.074 24.4365C99.9923 25.0805 98.7267 25.4025 97.2777 25.4025ZM97.2777 22.3704C98.5657 22.3704 99.5227 21.9411 100.149 21.0825C100.775 20.2239 101.088 19.1148 101.088 17.7553C101.088 16.3511 100.77 15.2331 100.135 14.4013C99.5003 13.5605 98.5478 13.1402 97.2777 13.1402C96.4102 13.1402 95.6946 13.3369 95.1311 13.7305C94.5766 14.1151 94.1652 14.6562 93.8969 15.3538C93.6285 16.0425 93.4944 16.843 93.4944 17.7553C93.4944 19.1595 93.8119 20.282 94.4469 21.1227C95.0909 21.9545 96.0345 22.3704 97.2777 22.3704Z" fill="#080808"/>
<defs>
<filter id="filter0_n_164_385" x="0" y="2.00003" width="26" height="26" filterUnits="userSpaceOnUse" color-interpolation-filters="sRGB">
<feFlood flood-opacity="0" result="BackgroundImageFix"/>
<feBlend mode="normal" in="SourceGraphic" in2="BackgroundImageFix" result="shape"/>
<feTurbulence type="fractalNoise" baseFrequency="25.34266471862793 25.34266471862793" stitchTiles="stitch" numOctaves="3" result="noise" seed="7517" />
<feColorMatrix in="noise" type="luminanceToAlpha" result="alphaNoise" />
<feComponentTransfer in="alphaNoise" result="coloredNoise1">
<feFuncA type="discrete" tableValues="1 1 1 1 1 1 1 1 1 1 1 1 1 1 1 1 1 1 1 1 1 1 1 1 1 1 1 1 1 1 1 1 1 1 1 1 1 1 1 1 1 1 1 1 1 1 1 1 1 1 0 0 0 0 0 0 0 0 0 0 0 0 0 0 0 0 0 0 0 0 0 0 0 0 0 0 0 0 0 0 0 0 0 0 0 0 0 0 0 0 0 0 0 0 0 0 0 0 0 0 "/>
</feComponentTransfer>
<feComposite operator="in" in2="shape" in="coloredNoise1" result="noise1Clipped" />
<feFlood flood-color="rgba(255, 255, 255, 0.25)" result="color1Flood" />
<feComposite operator="in" in2="noise1Clipped" in="color1Flood" result="color1" />
<feMerge result="effect1_noise_164_385">
<feMergeNode in="shape" />
<feMergeNode in="color1" />
</feMerge>
</filter>
<filter id="filter1_i_164_385" x="0" y="2.00003" width="26" height="26.4" filterUnits="userSpaceOnUse" color-interpolation-filters="sRGB">
<feFlood flood-opacity="0" result="BackgroundImageFix"/>
<feBlend mode="normal" in="SourceGraphic" in2="BackgroundImageFix" result="shape"/>
<feColorMatrix in="SourceAlpha" type="matrix" values="0 0 0 0 0 0 0 0 0 0 0 0 0 0 0 0 0 0 127 0" result="hardAlpha"/>
<feOffset dy="0.4"/>
<feGaussianBlur stdDeviation="0.25"/>
<feComposite in2="hardAlpha" operator="arithmetic" k2="-1" k3="1"/>
<feColorMatrix type="matrix" values="0 0 0 0 0.998272 0 0 0 0 0.998272 0 0 0 0 0.998272 0 0 0 0.2 0"/>
<feBlend mode="normal" in2="shape" result="effect1_innerShadow_164_385"/>
</filter>
</defs>
</svg>
