<svg width="60" height="60" viewBox="0 0 60 60" fill="none" xmlns="http://www.w3.org/2000/svg">
<rect x="0.307181" y="0.307181" width="59.3856" height="59.3856" rx="14.4375" fill="#2BB24B"/>
<rect x="0.307181" y="0.307181" width="59.3856" height="59.3856" rx="14.4375" stroke="#E5E5E5" stroke-width="0.614362"/>
<g clip-path="url(#clip0_2060_4370)">
<path d="M43.1924 20.5327C43.1924 20.8779 43.4722 21.1577 43.8174 21.1577H44.4424C44.7876 21.1577 45.0674 20.8779 45.0674 20.5327C45.0674 20.1875 44.7876 19.9077 44.4424 19.9077H43.8174C43.4722 19.9077 43.1924 20.1875 43.1924 20.5327Z" fill="white"/>
<path d="M25.0674 39.9077H28.1035L27.2196 39.0238C26.9852 38.7894 26.6673 38.6577 26.3358 38.6577H25.0674C20.2349 38.6577 16.3174 34.7402 16.3174 29.9077C16.3174 25.0752 20.2349 21.1577 25.0674 21.1577H35.0674C39.8999 21.1577 43.8174 25.0752 43.8174 29.9077C43.8174 34.7402 39.8999 38.6577 35.0674 38.6577H31.3266C30.8293 38.6577 30.3524 38.4602 30.0007 38.1086L28.9652 37.073C28.3792 36.487 27.5843 36.1577 26.7555 36.1577H25.0674C21.6156 36.1577 18.8174 33.3595 18.8174 29.9077C18.8174 26.4559 21.6156 23.6577 25.0674 23.6577H35.0674C38.5192 23.6577 41.3174 26.4559 41.3174 29.9077C41.3174 33.3595 38.5192 36.1577 35.0674 36.1577H32.6654C32.1681 36.1577 31.6912 35.9602 31.3396 35.6086L30.304 34.573C29.718 33.987 28.9231 33.6577 28.0943 33.6577H25.0674C22.9963 33.6577 21.3174 31.9788 21.3174 29.9077C21.3174 27.8367 22.9963 26.1577 25.0674 26.1577H35.0674C37.1384 26.1577 38.8174 27.8367 38.8174 29.9077C38.8174 31.9535 37.1791 33.6167 35.143 33.657L35.1426 33.6577H34.2279C33.7306 33.6577 33.2537 33.4602 32.9021 33.1086L31.8665 32.073C31.3857 31.5921 30.7642 31.2842 30.0988 31.1891L30.0674 31.1577H25.0674C24.377 31.1577 23.8174 30.5981 23.8174 29.9077C23.8174 29.2174 24.377 28.6577 25.0674 28.6577H35.0674C35.7577 28.6577 36.3174 29.2174 36.3174 29.9077C36.3174 30.5981 35.7577 31.1577 35.0674 31.1577H32.5674L33.4513 32.0416C33.6857 32.276 34.0036 32.4077 34.3351 32.4077H35.0674C36.4481 32.4077 37.5674 31.2884 37.5674 29.9077C37.5674 28.527 36.4481 27.4077 35.0674 27.4077H25.0674C23.6867 27.4077 22.5674 28.527 22.5674 29.9077C22.5674 31.2884 23.6867 32.4077 25.0674 32.4077H29.6568C30.1541 32.4077 30.631 32.6053 30.9827 32.9569L32.0182 33.9924C32.6043 34.5785 33.3991 34.9077 34.2279 34.9077H35.3799V34.8981C37.9957 34.7368 40.0674 32.5642 40.0674 29.9077C40.0674 27.1463 37.8288 24.9077 35.0674 24.9077H25.0674C22.306 24.9077 20.0674 27.1463 20.0674 29.9077C20.0674 32.6692 22.306 34.9077 25.0674 34.9077H28.0943C28.5916 34.9077 29.0685 35.1053 29.4202 35.4569L30.4557 36.4924C31.0418 37.0785 31.8366 37.4077 32.6654 37.4077H35.0674C39.2095 37.4077 42.5674 34.0499 42.5674 29.9077C42.5674 25.7656 39.2095 22.4077 35.0674 22.4077H25.0674C20.9252 22.4077 17.5674 25.7656 17.5674 29.9077C17.5674 34.0499 20.9252 37.4077 25.0674 37.4077H26.7555C27.2528 37.4077 27.7297 37.6053 28.0813 37.9569L29.1169 38.9924C29.7029 39.5785 30.4978 39.9077 31.3266 39.9077H35.0674C40.5902 39.9077 45.0674 35.4306 45.0674 29.9077C45.0674 24.3849 40.5902 19.9077 35.0674 19.9077L25.0674 19.9077C19.5445 19.9077 15.0674 24.3849 15.0674 29.9077C15.0674 35.4306 19.5445 39.9077 25.0674 39.9077Z" fill="white"/>
</g>
<defs>
<clipPath id="clip0_2060_4370">
<rect width="30" height="30" fill="white" transform="translate(15 15)"/>
</clipPath>
</defs>
</svg>
