<svg width="60" height="60" viewBox="0 0 60 60" fill="none" xmlns="http://www.w3.org/2000/svg">
<rect x="0.307181" y="0.307181" width="59.3856" height="59.3856" rx="14.4375" fill="#FF0000"/>
<rect x="0.307181" y="0.307181" width="59.3856" height="59.3856" rx="14.4375" stroke="#E5E5E5" stroke-width="0.614362"/>
<path fill-rule="evenodd" clip-rule="evenodd" d="M31.1111 20.0297C31.1111 19.3525 30.936 18.6847 30.5994 18.079C30.3086 17.5555 30.1378 16.9847 30.0973 16.4005L30 15L29.9028 16.4005C29.8622 16.9846 29.6914 17.5555 29.4006 18.079C29.0641 18.6847 28.8889 19.3525 28.8889 20.0297V39.9703C28.8889 40.6474 29.0641 41.3153 29.4006 41.921C29.6914 42.4445 29.8622 43.0154 29.9028 43.5996L30 45L30.0973 43.5995C30.1378 43.0153 30.3086 42.4445 30.5994 41.9209C30.936 41.3153 31.1111 40.6475 31.1111 39.9703V20.0297ZM25.0439 20.079C25.3804 20.6847 25.5556 21.3526 25.5556 22.0297V37.9703C25.5556 38.6475 25.3804 39.3153 25.0439 39.921C24.7531 40.4445 24.5823 41.0154 24.5417 41.5995L24.4444 43L24.3472 41.5995C24.3066 41.0154 24.1358 40.4445 23.845 39.921C23.5085 39.3153 23.3333 38.6475 23.3333 37.9703V22.0297C23.3333 21.3526 23.5085 20.6847 23.845 20.079C24.1358 19.5555 24.3066 18.9847 24.3472 18.4005L24.4444 17L24.5417 18.4005C24.5823 18.9847 24.7531 19.5555 25.0439 20.079ZM22.7778 24.0297C22.7778 23.3525 22.6026 22.6847 22.2661 22.0791C21.9753 21.5555 21.8045 20.9847 21.7639 20.4005L21.6667 19L21.5694 20.4005C21.5288 20.9847 21.358 21.5555 21.0672 22.0791C20.7307 22.6847 20.5556 23.3525 20.5556 24.0297V35.9703C20.5556 36.6474 20.7307 37.3153 21.0672 37.9209C21.358 38.4445 21.5288 39.0153 21.5694 39.5995L21.6667 41L21.7639 39.5995C21.8045 39.0153 21.9753 38.4445 22.2661 37.9209C22.6026 37.3153 22.7778 36.6474 22.7778 35.9703V24.0297ZM19.4884 26.079C19.8248 26.6847 20 27.3525 20 28.0297V31.9703C20 32.6474 19.8248 33.3153 19.4884 33.9209C19.1975 34.4445 19.0267 35.0153 18.9861 35.5995L18.8889 37L18.7916 35.5995C18.7511 35.0153 18.5803 34.4445 18.2894 33.9209C17.953 33.3153 17.7778 32.6474 17.7778 31.9703V28.0297C17.7778 27.3525 17.953 26.6847 18.2894 26.079C18.5803 25.5555 18.7511 24.9846 18.7916 24.4005L18.8889 23L18.9861 24.4005C19.0267 24.9846 19.1975 25.5555 19.4884 26.079ZM17.2221 30L17.2222 30.0297V29.9703L17.2221 30ZM15 30.0297L15.0001 30C15.0052 30.667 15.1801 31.3242 15.5116 31.9209C15.8025 32.4445 15.9733 33.0153 16.0139 33.5995L16.1111 35L16.2084 33.5995C16.2489 33.0153 16.4197 32.4445 16.7106 31.9209C17.0421 31.3242 17.2171 30.667 17.2221 30C17.2171 29.333 17.0421 28.6758 16.7106 28.0791C16.4197 27.5555 16.2489 26.9847 16.2084 26.4005L16.1111 25L16.0139 26.4005C15.9733 26.9847 15.8025 27.5555 15.5116 28.0791C15.1801 28.6758 15.0052 29.333 15.0001 30L15 29.9703V30.0297ZM27.8217 18.079C28.1582 18.6847 28.3333 19.3525 28.3333 20.0297V39.9703C28.3333 40.6475 28.1582 41.3153 27.8217 41.9209C27.5308 42.4445 27.3601 43.0153 27.3194 43.5995L27.2222 45L27.125 43.5995C27.0844 43.0153 26.9136 42.4445 26.6228 41.9209C26.2862 41.3153 26.1111 40.6475 26.1111 39.9703V20.0297C26.1111 19.3525 26.2862 18.6847 26.6228 18.079C26.9136 17.5555 27.0844 16.9847 27.125 16.4005L27.2222 15L27.3194 16.4005C27.3601 16.9847 27.5308 17.5555 27.8217 18.079ZM33.3772 18.079C33.7137 18.6847 33.8889 19.3525 33.8889 20.0297V39.9703C33.8889 40.6475 33.7137 41.3153 33.3772 41.9209C33.0864 42.4445 32.9156 43.0153 32.875 43.5995L32.7778 45L32.6806 43.5995C32.6399 43.0153 32.4692 42.4445 32.1783 41.9209C31.8418 41.3153 31.6667 40.6475 31.6667 39.9703V20.0297C31.6667 19.3525 31.8418 18.6847 32.1783 18.079C32.4692 17.5555 32.6399 16.9847 32.6806 16.4005L32.7778 15L32.875 16.4005C32.9156 16.9847 33.0864 17.5555 33.3772 18.079ZM36.6667 22.0297C36.6667 21.3526 36.4915 20.6847 36.155 20.079C35.8642 19.5555 35.6934 18.9847 35.6528 18.4005L35.5556 17L35.4583 18.4005C35.4177 18.9847 35.2469 19.5555 34.9561 20.079C34.6196 20.6847 34.4444 21.3526 34.4444 22.0297V37.9703C34.4444 38.6475 34.6196 39.3153 34.9561 39.921C35.2469 40.4445 35.4177 41.0154 35.4583 41.5995L35.5556 43L35.6528 41.5995C35.6934 41.0154 35.8642 40.4445 36.155 39.921C36.4915 39.3153 36.6667 38.6475 36.6667 37.9703V22.0297ZM38.9328 22.0791C39.2693 22.6847 39.4444 23.3525 39.4444 24.0297V35.9703C39.4444 36.6474 39.2693 37.3153 38.9328 37.9209C38.6419 38.4445 38.4712 39.0153 38.4306 39.5995L38.3333 41L38.2361 39.5995C38.1955 39.0153 38.0247 38.4445 37.7339 37.9209C37.3974 37.3153 37.2222 36.6474 37.2222 35.9703V24.0297C37.2222 23.3525 37.3974 22.6847 37.7339 22.0791C38.0247 21.5555 38.1955 20.9847 38.2361 20.4005L38.3333 19L38.4306 20.4005C38.4712 20.9847 38.6419 21.5555 38.9328 22.0791ZM42.2222 28.0297C42.2222 27.3525 42.0471 26.6847 41.7106 26.079C41.4197 25.5555 41.249 24.9846 41.2083 24.4005L41.1111 23L41.0139 24.4005C40.9733 24.9846 40.8025 25.5555 40.5117 26.079C40.1752 26.6847 40 27.3525 40 28.0297V31.9703C40 32.6474 40.1752 33.3153 40.5117 33.9209C40.8025 34.4445 40.9733 35.0153 41.0139 35.5995L41.1111 37L41.2083 35.5995C41.249 35.0153 41.4197 34.4445 41.7106 33.9209C42.0471 33.3153 42.2222 32.6474 42.2222 31.9703V28.0297ZM44.9999 30C44.9999 30.0099 45 30.0198 45 30.0297V29.9703C45 29.9802 44.9999 29.9901 44.9999 30ZM42.7779 30C42.7829 30.667 42.9578 31.3242 43.2894 31.9209C43.5803 32.4445 43.751 33.0153 43.7917 33.5995L43.8889 35L43.9861 33.5995C44.0267 33.0153 44.1975 32.4445 44.4883 31.9209C44.8199 31.3242 44.9949 30.667 44.9999 30C44.9949 29.333 44.8199 28.6758 44.4883 28.0791C44.1975 27.5555 44.0267 26.9847 43.9861 26.4005L43.8889 25L43.7917 26.4005C43.751 26.9847 43.5803 27.5555 43.2894 28.0791C42.9578 28.6758 42.7829 29.333 42.7779 30ZM42.7779 30C42.7778 29.9901 42.7778 29.9802 42.7778 29.9703V30.0297C42.7778 30.0198 42.7778 30.0099 42.7779 30Z" fill="white"/>
</svg>
