<svg width="60" height="60" viewBox="0 0 60 60" fill="none" xmlns="http://www.w3.org/2000/svg">
<rect x="0.307181" y="0.307181" width="59.3856" height="59.3856" rx="14.4375" fill="white"/>
<rect x="0.307181" y="0.307181" width="59.3856" height="59.3856" rx="14.4375" stroke="#E5E5E5" stroke-width="0.614362"/>
<path fill-rule="evenodd" clip-rule="evenodd" d="M22.5 15C26.6421 15 30 18.3579 30 22.5V15L37.5 15C41.6421 15 45 18.3579 45 22.5C45 26.6421 41.6421 30 37.5 30C41.6421 30 45 33.3579 45 37.5C45 39.5567 44.1721 41.4201 42.8314 42.7751L42.8033 42.8033L42.7784 42.8281C41.4232 44.1707 39.5585 45 37.5 45C35.4556 45 33.6022 44.182 32.2493 42.8554C32.2317 42.8381 32.2141 42.8207 32.1967 42.8033C32.1802 42.7869 32.1639 42.7704 32.1476 42.7538C30.8193 41.4007 30 39.546 30 37.5C30 41.6421 26.6421 45 22.5 45C18.3579 45 15 41.6421 15 37.5L15 30H22.5C18.3579 30 15 26.6421 15 22.5C15 18.3579 18.3579 15 22.5 15ZM28.5 22.5C28.5 25.8137 25.8137 28.5 22.5 28.5V16.5C25.8137 16.5 28.5 19.1863 28.5 22.5ZM43.5 37.5C43.5 34.1863 40.8137 31.5 37.5 31.5C34.1863 31.5 31.5 34.1863 31.5 37.5H43.5ZM16.5 31.5V37.5C16.5 40.8137 19.1863 43.5 22.5 43.5C25.8137 43.5 28.5 40.8137 28.5 37.5V31.5H16.5ZM31.5 28.5V16.5H37.5C40.8137 16.5 43.5 19.1863 43.5 22.5C43.5 25.8137 40.8137 28.5 37.5 28.5H31.5Z" fill="#FF7801"/>
</svg>
