<svg width="60" height="60" viewBox="0 0 60 60" fill="none" xmlns="http://www.w3.org/2000/svg">
<rect x="0.307181" y="0.307181" width="59.3856" height="59.3856" rx="14.4375" fill="white"/>
<rect x="0.307181" y="0.307181" width="59.3856" height="59.3856" rx="14.4375" stroke="#E5E5E5" stroke-width="0.614362"/>
<path fill-rule="evenodd" clip-rule="evenodd" d="M13.4222 23.3137C12.5159 26.5115 12.2788 30.0301 12.7408 33.4249C13.2028 36.8195 14.3432 39.9377 16.0178 42.3851C17.6923 44.8325 19.8258 46.4992 22.1484 47.1745C24.4712 47.8497 26.8787 47.5031 29.0666 46.1786C31.2545 44.8541 33.1245 42.611 34.4402 39.7332C34.4753 39.6565 34.5099 39.5794 34.5441 39.5019C34.5683 39.4472 34.5922 39.3922 34.616 39.3371V47.5107H35.5371C37.9053 47.5107 40.2202 46.4844 42.1893 44.5614C44.1584 42.6386 45.693 39.9054 46.5993 36.7076C47.5056 33.51 47.7427 29.9914 47.2806 26.5966C46.8186 23.202 45.6783 20.0838 44.0037 17.6364C42.3292 15.1889 40.1957 13.5223 37.8731 12.847C35.5503 12.1717 33.1428 12.5183 30.9549 13.8429C28.767 15.1674 26.897 17.4104 25.5813 20.2883C25.5215 20.4192 25.4628 20.5514 25.4054 20.6844V12.5108H24.4844C22.1162 12.5108 19.8013 13.5371 17.8322 15.4601C15.8632 17.3829 14.3285 20.1161 13.4222 23.3137ZM23.5634 30.0107V15.2644C21.8846 15.4883 20.2654 16.322 18.8556 17.6986C17.1895 19.3257 15.8909 21.6384 15.1241 24.3441C14.3572 27.0499 14.1566 30.0271 14.5475 32.8996C14.9385 35.772 15.9034 38.4105 17.3203 40.4814C18.7372 42.5522 20.5425 43.9625 22.5079 44.5339C24.4732 45.1052 26.5103 44.812 28.3616 43.6912C30.1386 42.6155 31.6677 40.8237 32.7722 38.5282C31.9351 39.109 30.9989 39.4339 30.0107 39.4339C26.45 39.4339 23.5634 35.2149 23.5634 30.0107ZM36.4581 44.7571V30.0107C36.4581 24.8066 33.5715 20.5877 30.0107 20.5877C29.0226 20.5877 28.0864 20.9125 27.2493 21.4933C28.3538 19.1977 29.8829 17.4059 31.6599 16.3302C33.5112 15.2095 35.5483 14.9162 37.5136 15.4876C39.4789 16.0589 41.2842 17.4693 42.7012 19.5401C44.1181 21.611 45.0831 24.2495 45.4739 27.1219C45.8649 29.9944 45.6642 32.9716 44.8974 35.6774C44.1306 38.3831 42.832 40.6959 41.1659 42.3229C39.7561 43.6995 38.1369 44.5331 36.4581 44.7571ZM29.9186 36.7402C27.4483 36.6694 25.4549 33.7557 25.4064 30.1454H27.1487C28.5232 30.6032 29.6052 32.1845 29.9186 34.1934V36.7402ZM30.1028 36.7402C32.5731 36.6694 34.5666 33.7557 34.6151 30.1454H32.8728C31.4982 30.6032 30.4161 32.1847 30.1028 34.1939V36.7402ZM34.6151 29.8761C34.5666 26.2657 32.5731 23.3521 30.1028 23.2813V25.8276C30.4161 27.8366 31.4981 29.4181 32.8725 29.8761H34.6151ZM29.9186 23.2813C27.4484 23.3521 25.4549 26.2657 25.4064 29.8761H27.149C28.5233 29.4181 29.6053 27.8369 29.9186 25.8281V23.2813Z" fill="black"/>
</svg>
