<svg width="39" height="31" viewBox="0 0 39 31" fill="none" xmlns="http://www.w3.org/2000/svg">
<path d="M17.6702 0.371094L9.41019 13.95C11.571 14.1606 13.3485 15.0378 14.7426 16.5816C16.1367 18.1255 16.8338 19.9851 16.8338 22.1606C16.8338 24.5465 16.0322 26.5114 14.429 28.0553C12.8257 29.5992 10.874 30.3711 8.57373 30.3711C6.13405 30.3711 4.07775 29.5992 2.40483 28.0553C0.801609 26.5114 0 24.4413 0 21.8448C0 19.529 0.836461 16.9325 2.50938 14.0553C4.18231 11.1079 6.93566 6.89741 10.7694 1.42372L11.6059 0.371094H17.6702ZM39 0.371094L30.7399 13.95C32.9008 14.1606 34.6783 15.0378 36.0724 16.5816C37.5362 18.1255 38.2681 19.9851 38.2681 22.1606C38.2681 24.5465 37.4665 26.5114 35.8633 28.0553C34.2601 29.5992 32.2735 30.3711 29.9035 30.3711C27.5335 30.3711 25.5121 29.5992 23.8391 28.0553C22.1662 26.5114 21.3298 24.4413 21.3298 21.8448C21.3298 19.529 22.1662 16.9325 23.8391 14.0553C25.5818 11.1079 28.37 6.89741 32.2038 1.42372L32.9357 0.371094H39Z" fill="#262626"/>
</svg>
