<svg width="79" height="14" viewBox="0 0 79 14" fill="none" xmlns="http://www.w3.org/2000/svg">
<g clip-path="url(#clip0_587_596)">
<path fill-rule="evenodd" clip-rule="evenodd" d="M23 0.46875L15.661 13.4688H8.76761L11.839 8.08097H11.7012C9.16734 11.0614 5.38674 13.0235 0 13.4688V8.15558C0 8.15558 3.44603 7.97112 5.47185 6.04124H0V0.468853H6.14977V5.05206L6.2878 5.05155L8.80085 0.468853H13.4518V5.023L13.5897 5.02279L16.1971 0.46875H23Z" fill="#5D5D5D"/>
<path d="M59.0905 11.8053H60.8013V1.96875H59.0905V11.8053Z" fill="#5D5D5D"/>
<path fill-rule="evenodd" clip-rule="evenodd" d="M49.659 11.7044C50.0307 11.8592 50.4089 11.9367 50.7932 11.9367C51.4282 11.9367 51.9964 11.7819 52.4978 11.4721C52.9991 11.1625 53.3877 10.7357 53.6634 10.1916C53.9392 9.6434 54.077 9.0219 54.077 8.32722C54.077 7.63253 53.935 7.0111 53.6509 6.46288C53.3667 5.91467 52.972 5.4899 52.4664 5.18859C51.9609 4.8831 51.3864 4.73244 50.7431 4.73662C50.3337 4.73662 49.941 4.81614 49.5649 4.97516C49.1889 5.13419 48.8756 5.36017 48.6249 5.65311C48.6056 5.67542 48.5868 5.69794 48.5685 5.72069V1.97461H46.8514V11.8049H48.556L48.5526 10.8866C48.5966 10.9407 48.6438 10.9936 48.6938 11.0453C48.9654 11.3257 49.2871 11.5454 49.659 11.7044ZM51.4136 10.1163C51.1337 10.2879 50.8141 10.3737 50.4548 10.3737C50.0997 10.3737 49.7738 10.2857 49.4772 10.11C49.1805 9.93002 48.9445 9.68527 48.769 9.37555C48.5977 9.0659 48.5121 8.71431 48.5121 8.32094C48.5079 7.92757 48.5915 7.57605 48.7628 7.26638C48.9383 6.95252 49.1743 6.70979 49.4709 6.53821C49.7675 6.36245 50.0955 6.27666 50.4548 6.28084C50.8141 6.27666 51.1337 6.36035 51.4136 6.53194C51.6977 6.69933 51.9149 6.93996 52.0654 7.25382C52.2199 7.5635 52.2972 7.91922 52.2972 8.32094C52.2972 8.72273 52.2199 9.07845 52.0654 9.3881C51.9149 9.69782 51.6977 9.94051 51.4136 10.1163Z" fill="#5D5D5D"/>
<path d="M27 2.56543H28.9552L30.7043 8.96368L32.5649 2.56543H34.1943L36.2122 8.83527L37.8917 2.56543H39.684L37.0394 11.8056H35.3536L33.3017 5.68048L31.4181 11.8056H29.7135L27 2.56543Z" fill="#5D5D5D"/>
<path fill-rule="evenodd" clip-rule="evenodd" d="M42.5712 11.9693C41.8902 11.9735 41.276 11.8228 40.7288 11.5174C40.1856 11.2077 39.7574 10.7787 39.444 10.2305C39.1349 9.6823 38.9803 9.05665 38.9803 8.35356C38.9803 7.67143 39.1391 7.05419 39.4566 6.50179C39.7741 5.94938 40.2044 5.51834 40.7476 5.20866C41.2907 4.89898 41.8964 4.74414 42.5649 4.74414C43.3169 4.74414 43.9749 4.91153 44.5389 5.24632C45.1071 5.58111 45.5312 6.0561 45.8111 6.67127C46.0952 7.28226 46.1976 7.98322 46.1182 8.77417H40.7502C40.7653 9.08927 40.8437 9.37596 40.9857 9.63416C41.1445 9.91871 41.3659 10.1405 41.65 10.2995C41.9341 10.4586 42.2516 10.5381 42.6026 10.5381C42.8699 10.5339 43.1185 10.4879 43.3483 10.4C43.5781 10.3079 43.7723 10.1845 43.9311 10.0296C44.094 9.87478 44.2089 9.69906 44.2758 9.50237H46.0681C45.9594 9.9836 45.7422 10.4126 45.4163 10.7892C45.0904 11.1617 44.681 11.4525 44.188 11.6617C43.695 11.871 43.1561 11.9735 42.5712 11.9693ZM40.992 7.04791C40.8919 7.22279 40.8225 7.41109 40.7838 7.61288H44.3422C44.3163 7.35798 44.2378 7.12572 44.1066 6.91608C43.9561 6.66918 43.7514 6.47877 43.4924 6.34485C43.2334 6.20675 42.9409 6.1377 42.6151 6.1377C42.2683 6.1377 41.9529 6.21721 41.6688 6.37624C41.3847 6.53526 41.1591 6.75916 40.992 7.04791Z" fill="#5D5D5D"/>
<path d="M55.3367 4.88742C55.3367 4.32665 55.4641 3.82865 55.719 3.39342C55.9738 2.95401 56.331 2.61294 56.7906 2.37022C57.2543 2.12331 57.7954 1.99567 58.4136 1.9873V3.51268C58.1254 3.51687 57.8789 3.57755 57.6742 3.69473C57.4737 3.80772 57.3191 3.97302 57.2104 4.19063C57.1105 4.39098 57.0565 4.62324 57.0486 4.88742H58.3761V6.33748H57.0475V11.805H55.3367V6.33748H54.2338V4.88742H55.3367Z" fill="#5D5D5D"/>
<path fill-rule="evenodd" clip-rule="evenodd" d="M65.1504 11.9552C64.4527 11.9552 63.8281 11.8025 63.2767 11.497C62.7294 11.1873 62.2991 10.7605 61.9857 10.2164C61.6765 9.66822 61.522 9.04678 61.522 8.35203C61.522 7.65321 61.6765 7.02964 61.9857 6.48142C62.2991 5.92902 62.7294 5.50007 63.2767 5.19458C63.8281 4.88908 64.4527 4.73633 65.1504 4.73633C65.8523 4.73633 66.479 4.88908 67.0304 5.19458C67.5861 5.50007 68.0185 5.92693 68.3277 6.47515C68.6368 7.02336 68.7935 7.649 68.7977 8.35203C68.7935 9.04678 68.6368 9.66822 68.3277 10.2164C68.0227 10.7605 67.5924 11.1873 67.0367 11.497C66.4811 11.8025 65.8523 11.9552 65.1504 11.9552ZM65.1504 10.3797C65.5181 10.3797 65.844 10.2959 66.128 10.1286C66.4122 9.95697 66.6314 9.71842 66.7861 9.41291C66.9406 9.10326 67.0179 8.74961 67.0179 8.35203C67.0179 7.95031 66.9406 7.59459 66.7861 7.28492C66.6314 6.97524 66.4122 6.7367 66.128 6.5693C65.844 6.39773 65.5181 6.31194 65.1504 6.31194C64.787 6.31194 64.4632 6.39773 64.1791 6.5693C63.8992 6.7367 63.6819 6.97524 63.5273 7.28492C63.3728 7.59459 63.2976 7.95031 63.3017 8.35203C63.3017 8.74961 63.379 9.10326 63.5336 9.41291C63.6924 9.71842 63.9096 9.95697 64.1853 10.1286C64.4653 10.2959 64.787 10.3797 65.1504 10.3797Z" fill="#5D5D5D"/>
<path d="M70.6463 4.88672H68.7412L70.803 11.8043H72.4699L73.826 7.38604L75.2897 11.8043H76.9317L79 4.88672H77.2767L76.1035 9.1925L74.8071 4.88672H73.1404L71.8504 9.28733L70.6463 4.88672Z" fill="#5D5D5D"/>
</g>
<defs>
<clipPath id="clip0_587_596">
<rect width="79" height="13" fill="white" transform="translate(0 0.46875)"/>
</clipPath>
</defs>
</svg>
